<?xml version="1.0" encoding="UTF-8"?>
<svg width="1440px" height="1071px" viewBox="0 0 1440 1071" version="1.1" xmlns="http://www.w3.org/2000/svg" xmlns:xlink="http://www.w3.org/1999/xlink">
    <!-- Generator: Sketch 48.2 (47327) - http://www.bohemiancoding.com/sketch -->
    <title>Group 4</title>
    <desc>Created with Sketch.</desc>
    <defs></defs>
    <g id="Main-Page" stroke="none" stroke-width="1" fill="none" fill-rule="evenodd">
        <g id="Group-4" transform="translate(-9.000000, 0.000000)">
            <rect id="Rectangle-16-Copy" fill="#E84F3C" x="9" y="0" width="1489" height="1071" rx="2"></rect>
            <rect id="Rectangle-3" fill="#FFFFFF" transform="translate(69.831045, 364.804348) rotate(23.000000) translate(-69.831045, -364.804348) " x="65.3310454" y="352.804348" width="9" height="24" rx="4.5"></rect>
            <rect id="Rectangle-3-Copy-6" fill="#FFFFFF" transform="translate(8.831045, 82.804348) rotate(23.000000) translate(-8.831045, -82.804348) " x="4.33104538" y="70.8043483" width="9" height="24" rx="4.5"></rect>
            <rect id="Rectangle-3-Copy" fill="#141318" transform="translate(1371.831045, 783.804348) rotate(23.000000) translate(-1371.831045, -783.804348) " x="1367.33105" y="771.804348" width="9" height="24" rx="4.5"></rect>
            <rect id="Rectangle-3-Copy-5" fill="#141318" transform="translate(1439.831045, 12.804348) rotate(23.000000) translate(-1439.831045, -12.804348) " x="1435.33105" y="0.80434832" width="9" height="24" rx="4.5"></rect>
            <rect id="Rectangle-3-Copy-4" fill="#FFFFFF" transform="translate(1380.831045, 132.804348) rotate(105.000000) translate(-1380.831045, -132.804348) " x="1376.33105" y="120.804348" width="9" height="24" rx="4.5"></rect>
            <rect id="Rectangle-3-Copy-2" fill="#141318" transform="translate(1338.707993, 346.606923) rotate(62.000000) translate(-1338.707993, -346.606923) " x="1334.20799" y="334.606923" width="9" height="24" rx="4.5"></rect>
            <rect id="Rectangle-3-Copy-3" fill="#141318" transform="translate(118.707993, 938.606923) rotate(62.000000) translate(-118.707993, -938.606923) " x="114.207993" y="926.606923" width="9" height="24" rx="4.5"></rect>
            <rect id="Rectangle-3-Copy-7" fill="#141318" transform="translate(118.707993, 525.606923) rotate(62.000000) translate(-118.707993, -525.606923) " x="114.207993" y="513.606923" width="9" height="24" rx="4.5"></rect>
            <polygon id="Triangle-2" fill="#FFFFFF" transform="translate(1372.297105, 593.297105) rotate(-81.000000) translate(-1372.297105, -593.297105) " points="1372.29711 584.297105 1381.29711 602.297105 1363.29711 602.297105"></polygon>
            <polygon id="Triangle-2-Copy-4" fill="#FFFFFF" transform="translate(1441.297105, 417.297105) rotate(-81.000000) translate(-1441.297105, -417.297105) " points="1441.29711 408.297105 1450.29711 426.297105 1432.29711 426.297105"></polygon>
            <polygon id="Triangle-2-Copy-7" fill="#141318" transform="translate(1420.297105, 230.297105) rotate(5.000000) translate(-1420.297105, -230.297105) " points="1420.29711 221.297105 1429.29711 239.297105 1411.29711 239.297105"></polygon>
            <polygon id="Triangle-2-Copy-3" fill="#FFFFFF" transform="translate(1405.340662, 1012.340662) rotate(72.000000) translate(-1405.340662, -1012.340662) " points="1405.34066 1003.34066 1414.34066 1021.34066 1396.34066 1021.34066"></polygon>
            <polygon id="Triangle-2-Copy" fill="#141318" transform="translate(77.297105, 135.297105) rotate(-81.000000) translate(-77.297105, -135.297105) " points="77.2971053 126.297105 86.2971053 144.297105 68.2971053 144.297105"></polygon>
            <polygon id="Triangle-2-Copy-2" fill="#FFFFFF" transform="translate(55.909959, 722.909959) rotate(-14.000000) translate(-55.909959, -722.909959) " points="55.9099586 713.909959 64.9099586 731.909959 46.9099586 731.909959"></polygon>
            <polygon id="Triangle-2-Copy-6" fill="#141318" transform="translate(44.909959, 1034.909959) rotate(106.000000) translate(-44.909959, -1034.909959) " points="44.9099586 1025.90996 53.9099586 1043.90996 35.9099586 1043.90996"></polygon>
            <polygon id="Triangle-2-Copy-5" fill="#FFFFFF" transform="translate(78.909959, 30.909959) rotate(-14.000000) translate(-78.909959, -30.909959) " points="78.9099586 21.9099586 87.9099586 39.9099586 69.9099586 39.9099586"></polygon>
        </g>
    </g>
</svg>